/* XPM */
static char *_3ca630c3a2c473c9d621d73a9af1d71[] = {
/* columns rows colors chars-per-pixel */
"64 64 206 2 ",
"   c #31567C",
".  c #1C548A",
"X  c #15538D",
"o  c #245789",
"O  c #345D85",
"+  c #286196",
"@  c #3A6B98",
"#  c #3B6792",
"$  c #1A74BA",
"%  c #1268B0",
"&  c #256CA9",
"*  c #297BBA",
"=  c #347CB6",
"-  c #3674AA",
";  c #47688A",
":  c #4E759A",
">  c #4A7399",
",  c #597B9B",
"<  c #567798",
"1  c #4A6E90",
"2  c #617E9A",
"3  c #647B93",
"4  c #4D79A2",
"5  c #497EAD",
"6  c #547BA0",
"7  c #0F7CCA",
"8  c #1B7EC6",
"9  c #127ECB",
"0  c #177DC7",
"q  c #237DC2",
"w  c #3B83BD",
"e  c #68839C",
"r  c #72899F",
"t  c #778A9E",
"y  c #4981B2",
"u  c #468EBF",
"i  c #498ABE",
"p  c #4685B9",
"a  c #598AB6",
"s  c #4F92BE",
"d  c #5193BF",
"f  c #5C92BF",
"g  c #7A8FA4",
"h  c #728BA3",
"j  c #629CBF",
"k  c #7691AB",
"l  c #78A4BD",
"z  c #1481CE",
"x  c #1B82CB",
"c  c #1E81C7",
"v  c #1183D4",
"b  c #1A86D3",
"n  c #1087D9",
"m  c #1289DC",
"M  c #1B8DDC",
"N  c #1D89D6",
"B  c #1E91DF",
"V  c #2381C5",
"C  c #2C85C4",
"Z  c #2185CB",
"A  c #2588CE",
"S  c #2B8BCD",
"D  c #2987CA",
"F  c #3386C3",
"G  c #3688C2",
"H  c #3D8BC1",
"J  c #358DCC",
"K  c #398DCD",
"L  c #238AD3",
"P  c #2D8CD0",
"I  c #218FDB",
"U  c #2492DD",
"Y  c #2C93DB",
"T  c #3491D1",
"R  c #3B95D3",
"E  c #3696D9",
"W  c #3B91CD",
"Q  c #128DE3",
"!  c #158FE5",
"~  c #1C93E5",
"^  c #1293ED",
"/  c #1C96EA",
"(  c #1A94E9",
")  c #1A99F0",
"_  c #2C9AE2",
"`  c #249BEB",
"'  c #2A9EEC",
"]  c #2497E6",
"[  c #339CE4",
"{  c #3A9DE2",
"}  c #239DF2",
"|  c #289EF0",
" . c #2DA1EF",
".. c #36A2E6",
"X. c #36A3EB",
"o. c #3DA6E9",
"O. c #3CA9ED",
"+. c #3EA1E6",
"@. c #2DA4F3",
"#. c #27A0F3",
"$. c #34A8F5",
"%. c #3BACF5",
"&. c #35A5F2",
"*. c #438DC3",
"=. c #4A8FC3",
"-. c #4B92C3",
";. c #4392CB",
":. c #4A95CC",
">. c #4B98CF",
",. c #4691C3",
"<. c #5395C3",
"1. c #5C9AC3",
"2. c #5999C5",
"3. c #4499D4",
"4. c #4A9BD3",
"5. c #469CDA",
"6. c #579ED2",
"7. c #649EC2",
"8. c #699DC5",
"9. c #6B9DC8",
"0. c #5BA2D4",
"q. c #54A3DC",
"w. c #5AA4DB",
"e. c #6CA2C2",
"r. c #69A3CA",
"t. c #74A4C1",
"y. c #75A4C4",
"u. c #6CACDA",
"i. c #68A8D7",
"p. c #76ADD7",
"a. c #76B1DC",
"s. c #43ACED",
"d. c #48A6E8",
"f. c #57ACE6",
"g. c #5CB2EB",
"h. c #41ADF2",
"j. c #4AADF1",
"k. c #44B2F6",
"l. c #4CB5F4",
"z. c #4BB7F8",
"x. c #52B6F3",
"c. c #53BAF6",
"v. c #53BCF9",
"b. c #5CBBF5",
"n. c #4DB1EE",
"m. c #69B5EB",
"M. c #79BAE8",
"N. c #64BAF3",
"B. c #6CBDF2",
"V. c #64B7F1",
"C. c #72BEF1",
"Z. c #63AEE4",
"A. c #5DC1F9",
"S. c #64C4F9",
"D. c #6BC6F8",
"F. c #7BCEFB",
"G. c #78C4F7",
"H. c #7CD0FC",
"J. c #8799AC",
"K. c #99A7B6",
"L. c #A6B1BB",
"P. c #8AB8DC",
"I. c #9AB0C7",
"U. c #A8B9CA",
"Y. c #A5BBD1",
"T. c #85BCE6",
"R. c #90BFE1",
"E. c #B7C8D9",
"W. c #B3C2D2",
"Q. c #89C4EC",
"!. c #93C2E3",
"~. c #91C6EB",
"^. c #9AC8EA",
"/. c #88C8F5",
"(. c #96CEF5",
"). c #87D2FB",
"_. c #98D3F9",
"`. c #A3CDEB",
"'. c #A8CCE6",
"]. c #B1CFE6",
"[. c #A9D0EB",
"{. c #B5D4EA",
"}. c #BBD6EA",
"|. c #B7D2E7",
" X c #A8D6F6",
".X c #B3DDF9",
"XX c #B9DBF5",
"oX c #BCE1FA",
"OX c #CAD3DC",
"+X c #C4DAEA",
"@X c #CFDFEB",
"#X c #C6D6E3",
"$X c #C9DEEE",
"%X c #D8E3ED",
"&X c #C4E4FA",
"*X c #CBE5F8",
"=X c #D4EBFB",
"-X c #DBEEFB",
";X c #D7E6F3",
":X c #DEF0FC",
">X c #E4EBF2",
",X c #E7EDF4",
"<X c #E5F2FB",
"1X c #EAF4FC",
"2X c #E8ECEF",
"3X c None",
/* pixels */
"3X3X3X3X3X3X3X3X3X3X3X3X3X3X3X3X3X3X3X3X3X3X3X3X3X3X3X3X3X3X3X3X3X3X3X3X3X3X3X3X3X3X3X3X3X3X3X3X3X3X3X3X3X3X3X3X3X3X3X3X3X3X3X3X",
"3X3X3X3X3X3X3X3X3X3X3X3X3X3X3X3X3X3X3X3X3X3X3X3X3X3X2X%X#XOXE.E.E.Y.Y.U.U.W.3X3X3X3X3X3X3X3X3X3X3X3X3X3X3X3X3X3X3X3X3X3X3X3X3X3X",
"3X3X3X3X3X3X3X3X3X3X3X3X3X3X3X3X3X3X3X3X3X3X2X%X%X%X%X*X*X*XoXoXXXXX[.`.^.P.P.e.k K.3X3X3X3X3X3X3X3X3X3X3X3X3X3X3X3X3X3X3X3X3X3X",
"3X3X3X3X3X3X3X3X3X3X3X3X3X3X3X3X3X3X3X3X2X>X:X<X<X-X=X=X*X&XoX.X.X X X X`.^.~.T.a.0.a 2 3X3X3X3X3X3X3X3X3X3X3X3X3X3X3X3X3X3X3X3X",
"3X3X3X3X3X3X3X3X3X3X3X3X3X3X3X3X3X1X2X1X<X<X1X:X=X&X.X X).).H.H.F.F.).)._._._./.Q.M.u.6.w # 3X3X3X3X3X3X3X3X3X3X3X3X3X3X3X3X3X3X",
"3X3X3X3X3X3X3X3X3X3X3X3X3X3X3X3X,X1X1X1X<X-X&X_.H.F.D.S.S.A.A.A.A.A.b.A.b.S.D.G.F.Q.m.m.q.T &   3X3X3X3X3X3X3X3X3X3X3X3X3X3X3X3X",
"3X3X3X3X3X3X3X3X3X3X3X3X3X3X,X,X1X1X<X=X.X).D.S.v.v.v.v.A.v.v.v.v.v.c.v.c.c.v.b.b.S.D.M.Z.q.E $ X 3 3X3X3X3X3X3X3X3X3X3X3X3X3X3X",
"3X3X3X3X3X3X3X3X3X3X3X3X3X>X1X1X<X=X.XH.S.A.v.v.v.v.v.v.z.v.v.v.c.z.c.c.c.c.c.c.c.x.c.A.N.f.q.Y z %   3X3X3X3X3X3X3X3X3X3X3X3X3X",
"3X3X3X3X3X3X3X3X3X3X3X3X>X<X1X:XoX_.S.v.c.z.z.z.z.z.z.z.z.z.z.z.z.z.l.l.l.n.l.k.n.k.n.l.c.c.Z.5.E 9 % . 3X3X3X3X3X3X3X3X3X3X3X3X",
"3X3X3X3X3X3X3X3X3X3X3X%X<X1X=X XF.v.z.k.k.k.k.z.z.k.k.k.k.z.k.k.k.k.k.k.k.k.k.n.k.n.s.n.s.s.n.f.E U 7 $ . 3X3X3X3X3X3X3X3X3X3X3X",
"3X3X3X3X3X3X3X3X3X3X;X<X<X&X/.N.v.k.k.k.k.k.k.k.%.k.k.k.k.%.k.%.k.h.h.h.h.h.h.h.s.s.s.s.s.s.s.s.d.Y L 9 0 . 3X3X3X3X3X3X3X3X3X3X",
"3X3X3X3X3X3X3X3X3X%X-X-XoX/.x.k.%.%.%.%.%.%.%.%.%.%.h.k.c.b.B.C.B.C.B.B.b.n.O.O.O.O.O.O.o.o.o...+.Y Y N z $ o 3X3X3X3X3X3X3X3X3X",
"3X3X3X3X3X3X3X3X#X=X:XoXC.h.%.%.%.$.%.$.%.$.%.%.b.(.{.$X@X@X@X@X@X@X@X@X@X@X@X{.Q.x.....O.........{ b L z z $ O 3X3X3X3X3X3X3X3X",
"3X3X3X3X3X3X3X#X;X=X&XC.h.@.$.$.$.$.$.$.$.&.B.XX@X@X@X@X@X@X@X@X@X}.}.+X@X@X@X@X@X@X}.m.........[ [ I b b z x $ ; 3X3X3X3X3X3X3X",
"3X3X3X3X3X3XOX$X*X&X/.h.) @.@.$.$.@.$.@.&.(.@X@X@X@X@X@X@X@X@X+Xn.@.@. .O.g.Q.}.@X@X@X@X`..._ _ _ _ U z b z z V & t 3X3X3X3X3X3X",
"3X3X3X3X3X3X}.&X&X(.j.} ^ #.@.#.@.#.#.$.[.@X@X@X@X@X@X@X@X@X@X^.@. . . . .' ` ' g.[.@X@X@X`._ _ _ Y U v v z z x q + 3X3X3X3X3X3X",
"3X3X3X3X3XE.XX*X Xb.#.^ ^ #.#.#.#.#.@.`.@X@X@X@X@X@X@X@X%X@X@X`.#.` ` ` ` ` ` ` ] _ g.}.@X@XT.U U U U v v 7 7 z x * 1 3X3X3X3X3X",
"3X3X3X3XOX].XX.XG.@.) ^ ^ } } } #.} ~.@X@X@X@X@X@X@X@X@X@X@X@X@X&.` ` ` ` ` ] ] ] ] ] _ ~.%X+XU U U L q.v z z z x V & 3X3X3X3X3X",
"3X3X3X3XY. X.X(.k.) ^ ^ ^ } } } } B.@X@X@X@X@X@X@X@X@X@X@X@X@X@XQ.` / ` ] / / ~ ~ ~ B B M f.5.~ M M q.].z 7 v 7 z Z C ; 3X3X3X3X",
"3X3X3X3X^. X XV.#.^ ^ ^ ^ ) ) ) #.XX@X@X@X@X@X@X@X@X@X@X@X@X@X@X@Xs./ / / ~ ~ ~ ~ ~ ~ M M M M N M M !.@XR v 7 z z x C & 3X3X3X3X",
"3X3X3XI.^. X/.h.) ^ ^ ^ ^ ) ) ) V.@X@X@X@X@X@X@X@X@X@X@X@X@X@X@X@X}.] ~ ~ ~ ! ~ M M M ! M m Y T.^.].@X@X].T.a.L 9 z A = 3 3X3X3X",
"3X3X3XP.`._.B.| ^ ^ ^ ) ^ ^ ) ) Q.@X@X@X@X@X@X@X@X@X@X@X@X@X@X@X@X@X^.( ! ! ! M M ! M m m b b f.+X@X@X@X@X@Xa.7 9 z A F @ 3X3X3X",
"3X3XY.T.(.(.j.^ ^ ^ ^ ^ ^ ^ ^ ^ ^.@X$X@X@X@X@X@X@X@X@X@X@X@X@X@X@X@X@XQ.! M Q m M m m m n n n n R +X@X@X@Xu.z 7 7 9 Z S = 3X3X3X",
"3X3Xk T.(.C.@.^ ^ ^ ^ ^ ^ ^ ^ ^ `.@X%X@X@X@X@X@X@X@X@X@X@X@X@X@X@X@X@X@Xm.Q Q m m m m n n n n m v }.@X@X@X6.7 7 9 9 x S w 2 3X3X",
"3X3X9.T./.g.) ^ ^ ^ ^ ^ ^ ^ ^ ^ `.@X@X@X@X@X@X@X@X@X@X@X@X@X@X@X@X@X@X@X@Xq.m m n n n n v n m 7 L @X].w.].!.7 7 7 7 x D G > 3X3X",
"3X3X0.Q./.j.( ^ ^ ^ ^ ^ ^ ^ ^ ^ ~.@X@X@X@X@X@X@X@X@X@X@X@X@X@X@X@X@X@X@X@X$X{ m n n n n n 9 7 n 5.u.v 7 z u.9 7 7 7 z A J - 3X3X",
"3XK.0.M.B.X.^ ^ ^ ^ ^ ^ ^ ^ ^ ^ B.@X@X@X@X@X@X@X@X@X@X@X@X@X@X@X@X@X@X@X@X@X+X_ n n n v n v 9 9 v v 9 v 7 7 7 7 7 7 0 A J = 3X3X",
"3Xk w.B.V.` Q Q Q ^ ^ ^ ^ ^ Q ^ X.@X@X@X@X@X@X@X@X@X@X@X@X@X@X@X@X@X@X@X@X@X@X|.I n v n 9 n n 9 9 z v 7 7 7 7 7 7 7 0 x J w J.3X",
"3X6 q.V.g./ ^ ^ ^ ^ ^ ^ ^ Q ^ ^ ! `.@X@X@X@X@X@X@X@X@X@X@X@X@X@X@X@X@X@X@X@X@X@X'.m v v v v 9 v v 7 7 7 7 7 7 7 7 7 9 Z T H e 3X",
"3X> 5.V.j.( Q Q Q Q Q ^ ^ ^ Q ^ ^ d.@X@X@X@X@X@X@X@X@X@X@X@X@X@X@X@X@X@X@X@X@X@X@X!.v v v v v v 7 v 7 v 7 7 7 7 7 7 7 Z J *.< 3X",
"3X+ 5.f.d.! ! ^ ^ Q Q Q Z.d.^ ^ ! ^ T.@X@X@X@X@X@X@X@X@X@X@X@X@X@X@X@X@X@X@X@X@X@X@XM.9 7 n v 7 v 7 7 7 7 7 7 7 7 7 7 x T ;.> 3X",
"3Xo { f.d.! Q ! Q Q Q ^ [.~.! ! ^ Q / }.@X@X@X@X@X@X@X@X@X@X@X@X@X@X@X@X@X@X@X@X@X@X@Xf.n 7 7 v 7 v 7 7 7 7 7 7 7 7 7 Z T ,.: 3X",
"3X. Y d.+.Q Q Q Q ~ [ Z.@X@X[ ! ^ Q Q [ $X@X@X@X@X@X@X@X@X@X@X@X@X@X@X@X@X@X@X@X@X@X@X@Xw.v v 7 7 7 7 7 7 7 7 7 7 7 7 x T ,.: 3X",
"3X. 8 +.{ Q Q Q d.@X$X@X@X@X@X@X!.! Q Q d.@X@X@X@X@X@X@X@X@X@X@X@X@X@X@X@X@X@X@X@X@X@X@X@X4.z z 7 7 7 v 7 7 7 7 7 7 z x R ,.: 3X",
"3Xo 9 { [ ! Q m Q { }.@X@X@X$X!.! Q Q Q M Z.@X@X@X@X@X@X@X@X@X@X@X@X@X@X@X@X@X@X@X@X@X@X@X+XL 7 7 7 7 7 7 7 $ 7 7 7 7 Z R ,., 3X",
"3X# 7 Y { ! m Q Q Q [ @X@X@X+XQ Q Q Q m Q Q M.@X@X@X@X@X@X@X@X@X@X@X@X@X@X@X@X@X@X@X@X@X@X@X!.z 7 7 7 7 7 7 7 7 7 7 $ x R ,.r 3X",
"3X< $ M [ M m m n n f.@X$X+X$X_ m Q m Q m m m ~.@X@X@X@X@X@X@X@X@X@X@X@X@X@X@X@X@X@X@X@X@X@X@XT 7 7 7 7 7 7 7 7 7 7 z P 3.i J.3X",
"3Xg % m U I m n n Q M.'.{ ! T.a.m m m n m m m M '.@X@X@X@X@X@X@X@X@X@X@X@X@X@X@X@X@X@X@X@X@X@XP.7 7 7 7 7 7 7 7 7 0 z T 3.p 3X3X",
"3X3X% z M I m n n m { n m m m B n Q n m m m n n M [.@X@X@X@X@X@X@X@X@X@X@X@X@X@X@X@X@X@X@X@X@X#Xv 7 7 7 7 7 7 7 7 7 Z R >.5 3X3X",
"3X3X+ 8 n I m n n n n n m n m n n n n n n n n n n I }.@X@X@X@X@X@X@X@X@X@X@X@X@X@X@X@X@X@X@X@X@X7 7 7 7 7 7 7 7 7 0 L ;.:.: 3X3X",
"3X3XO 0 v b m n n n n Q n n n n n n n n n n n n v v B }.@X@X@X@X@X@X@X@X@X@X@X@X@X@X@X@X@X@X@X@X$ 7 7 7 7 7 7 7 7 0 P 3.=.r 3X3X",
"3X3Xg $ z n m v n n 9 n 7 n n n n n n v n v n v v v v U }.@X@X@X@X@X%X@X@X@X@X@X@X@X@X@X@X@X@X@X0 7 7 7 7 7 7 7 7 x R 4.p 3X3X3X",
"3X3X3X+ x b v v 7 n n n n n 7 n v n n n n v n v v v v v E +X@X@X@X@X@X@X@X@X@X@X@X@X@X@X@X@X@X+X7 7 7 7 7 7 7 7 9 S 3.>.4 3X3X3X",
"3X3X3X; q N v v n n 7 n n n n n n v v v 7 n n 7 v v v v v R +X@X@X@X@X@X@X@X@X@X@X@X@X@X@X@X@X^.7 7 7 7 7 7 7 7 z J 4.,.g 3X3X3X",
"3X3X3X3X& N b v n 9 n 9 v v v N N v v v n v v n v v v v v v 4.@X@X@X@X%X$X@X@X@X@X@X@X@X@X@X@Xi.7 7 7 7 7 7 7 0 A 3.>.y 3X3X3X3X",
"3X3X3X3XO q N v 9 n 9 n v v v w.@Xa.v v 7 v 7 7 z v v 7 z z z 0.@X@X@X@X@X@X@X@X@X@X@X@X@X@X+Xx 7 7 7 7 7 7 7 x T 4.=.2 3X3X3X3X",
"3X3X3X3X3X& D N v 9 9 n 9 v v E @X@X^.L 9 v n 7 z z z z z z z 7 !.@X@X@X@X@X@X@X@X@X@X@X@X@Xu.7 7 7 7 7 7 7 z S 3.>.5 3X3X3X3X3X",
"3X3X3X3X3X; * A b n 9 9 9 v z 9 R.@X@X}.5.v 7 v z z z z z z z z ;.@X@X@X@X@X@X@X@X@X@X@X@X].x 0 0 7 $ 7 0 9 A R 4.i r 3X3X3X3X3X",
"3X3X3X3X3X3X@ C L z z v 9 z z x x !.@X@X@XP.S x x z z z z z 0 z V @X@X@X@X@X@X@X@X@X@X@X'.A 0 0 0 0 0 7 7 x T 4.:.4 3X3X3X3X3X3X",
"3X3X3X3X3X3Xg = S A z 9 9 z x x x x u.@X@X@X@X!.0.Z c c x x 8 c ;.@X@X@X@X@X@X@X@X@X+Xp.c 8 8 8 0 c 0 7 x P 3.>.p 3X3X3X3X3X3X3X",
"3X3X3X3X3X3X3X1 = S A 9 9 z x x c x x T !.@X@X@X@X@X].P.i.6.6.a.}.@X@X@X@X@X@X@X}.p.D 8 8 8 8 8 c c c x S 3.>.i r 3X3X3X3X3X3X3X",
"3X3X3X3X3X3X3X3X@ F P L z x q Z c c V V c T p.|.@X@X@X@X@X@X@X@X@X@X@X@X+X'.a.;.V c c q V V c V 8 V A D 3.4.=., 3X3X3X3X3X3X3X3X",
"3X3X3X3X3X3X3X3X3X@ H P P Z V V V V V V V V V V C >.6.i.i.i.i.i.i.6.:.J V V V V V V V V V V V q V C T 3.4.=.6 3X3X3X3X3X3X3X3X3X",
"3X3X3X3X3X3X3X3X3X3X- G T P T C C C V C V C C C C V C C C C C C V C C C C C C C C V C C C D C C G ;.3.4.=.6 3X3X3X3X3X3X3X3X3X3X",
"3X3X3X3X3X3X3X3X3X3X3X> H W W H G S C C G C C C F C C F F C C G C C C C C C G C C C F F C F G H :.4.4.=.6 3X3X3X3X3X3X3X3X3X3X3X",
"3X3X3X3X3X3X3X3X3X3X3X3X> p W 3.,.,.H G G w G G w G G G w F G G G G w w G G G G G C w w H H :.2.0.>.u < 3X3X3X3X3X3X3X3X3X3X3X3X",
"3X3X3X3X3X3X3X3X3X3X3X3X3X2 p ;.6.<.=.,.u w H H H H H *.H H H H *.H H H H H H H H H *.,.-.2.1.0.:.p r 3X3X3X3X3X3X3X3X3X3X3X3X3X",
"3X3X3X3X3X3X3X3X3X3X3X3X3X3XK.4 =.0.1.2.<.<.s u u u u u u u u u u u u u u u u s s -.<.1.1.r.0.=.6 3X3X3X3X3X3X3X3X3X3X3X3X3X3X3X",
"3X3X3X3X3X3X3X3X3X3X3X3X3X3X3X3Xe y <.r.7.7.1.j 1.d d d s s s s s s s d d d d j 7.8.e.e.r.<.5 r 3X3X3X3X3X3X3X3X3X3X3X3X3X3X3X3X",
"3X3X3X3X3X3X3X3X3X3X3X3X3X3X3X3X3X3X, y r.r.e.e.e.e.7.7.7.j j j j j 7.7.e.e.e.e.e.y.r.1.y 2 3X3X3X3X3X3X3X3X3X3X3X3X3X3X3X3X3X3X",
"3X3X3X3X3X3X3X3X3X3X3X3X3X3X3X3X3X3X3X3Xh 4 j r.l l t.t.l t.t.l t.t.l t.l l l t.r.f : k 3X3X3X3X3X3X3X3X3X3X3X3X3X3X3X3X3X3X3X3X",
"3X3X3X3X3X3X3X3X3X3X3X3X3X3X3X3X3X3X3X3X3X3X3Xr : a e.t.t.l l l l l l y.t.e.a : r 3X3X3X3X3X3X3X3X3X3X3X3X3X3X3X3X3X3X3X3X3X3X3X",
"3X3X3X3X3X3X3X3X3X3X3X3X3X3X3X3X3X3X3X3X3X3X3X3X3X3XL.J.h 2 , , 2 , e h J.L.3X3X3X3X3X3X3X3X3X3X3X3X3X3X3X3X3X3X3X3X3X3X3X3X3X3X",
"3X3X3X3X3X3X3X3X3X3X3X3X3X3X3X3X3X3X3X3X3X3X3X3X3X3X3X3X3X3X3X3X3X3X3X3X3X3X3X3X3X3X3X3X3X3X3X3X3X3X3X3X3X3X3X3X3X3X3X3X3X3X3X3X"
};
