/* XPM */
static char *_5a7af3fe0484c27d4171bb947643ba3[] = {
/* columns rows colors chars-per-pixel */
"32 32 169 2 ",
"   c #1776BE",
".  c #226EAC",
"X  c #296FAA",
"o  c #2D73AC",
"O  c #3877AB",
"+  c #2077BA",
"@  c #347BB6",
"#  c #417CAD",
"$  c #0F7CCA",
"%  c #177DC7",
"&  c #127ECA",
"*  c #187CC6",
"=  c #5D85A9",
"-  c #4B84B1",
";  c #5A8CB5",
":  c #538BB8",
">  c #5B90BC",
",  c #6E8FAD",
"<  c #6995B3",
"1  c #6F97B9",
"2  c #6B98B7",
"3  c #7497B6",
"4  c #739BB7",
"5  c #729CBD",
"6  c #7895B1",
"7  c #1E80C6",
"8  c #1480CD",
"9  c #1B83CC",
"0  c #1183D4",
"q  c #1A86D2",
"w  c #1E89D6",
"e  c #1086D9",
"r  c #138ADC",
"t  c #2782C4",
"y  c #2C84C4",
"u  c #2286CD",
"i  c #2885C8",
"p  c #2A8ACE",
"a  c #2689CE",
"s  c #3387C2",
"d  c #3589C3",
"f  c #338CCB",
"g  c #3A8BC3",
"h  c #238FDB",
"j  c #308ED0",
"k  c #2F91D7",
"l  c #2491DD",
"z  c #2C94DC",
"x  c #3B94D3",
"c  c #349ADE",
"v  c #3392D5",
"b  c #118DE3",
"n  c #188EE1",
"m  c #1C91E3",
"M  c #1393ED",
"N  c #1E96E9",
"B  c #1490E7",
"V  c #1C9AF1",
"C  c #1596F0",
"Z  c #2095E7",
"A  c #2D9AE5",
"S  c #259BEB",
"D  c #329AE2",
"F  c #249CF0",
"G  c #35A1E6",
"H  c #3EA3E7",
"J  c #3EAAED",
"K  c #37A3EC",
"L  c #25A0F2",
"P  c #2DA3F3",
"I  c #36AAF5",
"U  c #3EADF3",
"Y  c #34A3F1",
"T  c #3FB0F6",
"R  c #438EC1",
"E  c #4B8FC3",
"W  c #4A91C2",
"Q  c #4593CA",
"!  c #4A95CB",
"~  c #5297C3",
"^  c #5A99C6",
"/  c #4195D1",
"(  c #449AD7",
")  c #4B9FDB",
"_  c #659EC1",
"`  c #6B9FC1",
"'  c #47A0DE",
"]  c #5CA5D9",
"[  c #58A2D7",
"{  c #6BA1C2",
"}  c #77A2C7",
"|  c #64A9DA",
" . c #6DADDA",
".. c #75AFD9",
"X. c #76B1DB",
"o. c #49A9E9",
"O. c #52AAE7",
"+. c #5CACE3",
"@. c #5CB3ED",
"#. c #57B1EE",
"$. c #4EAFF0",
"%. c #43B1F6",
"&. c #4AB4F4",
"*. c #49B6F8",
"=. c #5CB5F3",
"-. c #54BBF7",
";. c #5FBFF6",
":. c #54BBF8",
">. c #58B9F5",
",. c #69AFE0",
"<. c #6CB6EA",
"1. c #68B6EB",
"2. c #7FB7E0",
"3. c #71BBED",
"4. c #75B2E2",
"5. c #70BDF1",
"6. c #7AC1EF",
"7. c #67C3F8",
"8. c #75CBFB",
"9. c #839FB8",
"0. c #85A3BC",
"q. c #8CA6BD",
"w. c #93A9BE",
"e. c #97AEC3",
"r. c #9AB0C2",
"t. c #86BADF",
"y. c #8CBCDE",
"u. c #A1B6C7",
"i. c #A0B7C9",
"p. c #A1BDD5",
"a. c #81BBE4",
"s. c #91BFE0",
"d. c #9AC0DF",
"f. c #B1C2CF",
"g. c #A8C3D9",
"h. c #87C1EA",
"j. c #8CC4ED",
"k. c #93C3E3",
"l. c #9AC4E3",
"z. c #9CCBEB",
"x. c #97C8EA",
"c. c #8ECEF7",
"v. c #84C9F5",
"b. c #92CCF5",
"n. c #8AD0FA",
"m. c #93D4FB",
"M. c #94D9FD",
"N. c #ACCDE6",
"B. c #A9CDE6",
"V. c #B0CCE3",
"C. c #ACD0EA",
"Z. c #B5D4EB",
"A. c #BCD5E9",
"S. c #BFD8EB",
"D. c #A8D7F8",
"F. c #A9DEFC",
"G. c #B0D9F6",
"H. c #C0D7E9",
"J. c #C4DAEA",
"K. c #CFDFEB",
"L. c #C7D5E2",
"P. c #DBE6EF",
"I. c #C9E5F9",
"U. c #D4EDFC",
"Y. c #DFEFFC",
"T. c #E5ECF4",
"R. c #E9F1F7",
"E. c #F0F3F7",
"W. c None",
/* pixels */
"W.W.W.W.W.W.W.W.W.W.W.W.W.W.W.W.W.W.W.W.W.W.W.W.W.W.W.W.W.W.W.W.",
"W.W.W.W.W.W.W.W.W.W.W.W.T.P.K.H.V.g.p.g.W.W.W.W.W.W.W.W.W.W.W.W.",
"W.W.W.W.W.W.W.W.W.E.R.Y.I.F.M.n.n.c.m.b.4.> q.W.W.W.W.W.W.W.W.W.",
"W.W.W.W.W.W.W.W.R.U.M.8.7.:.:.:.:.>.>.;.7.6.) X W.W.W.W.W.W.W.W.",
"W.W.W.W.W.W.R.R.D.8.*.*.*.*.*.*.&.&.&.&.&.$.@.'   , W.W.W.W.W.W.",
"W.W.W.W.W.T.Y.m.:.T T T T T T %.U U U U J J J o.k % = W.W.W.W.W.",
"W.W.W.W.P.U.c.%.I I I T 5.z.Z.J.J.J.Z.x.1.K G G c w % 6 W.W.W.W.",
"W.W.W.W.I.b.P P P P >.S.K.K.K.K.1.#.5.z.K.S.O.A z q q + W.W.W.W.",
"W.W.W.A.D.Y C L L $.J.K.K.K.P.J.S S S S ' z.J.c l q 0 8 O W.W.W.",
"W.W.L.G.=.C C V P H.K.K.K.K.K.K.@.N N N m m +.l l 2.8 & t w.W.W.",
"W.W.d.b.F C C C 5.K.K.K.K.K.K.K.S.A m n n r r ,.B.K.t.u u O W.W.",
"W.W.j.=.M M M M j.K.K.K.K.K.K.K.K.C.m b r r e w C.K.| $ 9 s W.W.",
"W.p.v.Y B M M M j.K.K.K.K.K.K.K.K.K.x.r e e 0 e k.| | $ & p q.W.",
"W.} 5.N B M M M 1.K.K.K.K.K.K.K.K.K.K.a.e e 0 & 8 $ & $ $ p < W.",
"W.: @.B B M M M S J.K.K.K.K.K.K.K.K.K.K.,.e 0 0 & $ $ $ $ a - W.",
"W.@ o.B b b <.m B <.K.K.K.K.K.K.K.K.K.K.K.) & 0 & $ $ $ $ p - W.",
"W.. ' b A a.H.z.O.b x.K.K.K.K.K.K.K.K.K.K.K.( 8 $ $ $ $ $ p - W.",
"W.. A b n <.K.Z.m b n B.K.K.K.K.K.K.K.K.K.K.A.9 $ $ $ $ $ p ; W.",
"W.# h r b +.2.j.r b r m A.K.K.K.K.K.K.K.K.K.K.] $ $ $ $ & x 2 W.",
"W.3 q r e r r e r e e e z S.K.K.K.K.K.K.K.K.K.y.$ $ $ $ 8 / e.W.",
"W.W.% r e 0 e e e e 0 e 0 z S.K.K.K.K.K.K.K.K.y.$ $ $ $ a W W.W.",
"W.W.o q 0 e 0 0 0 0 0 0 0 0 v J.K.K.K.K.K.K.K.X.$ $ $ % x ; W.W.",
"W.W.0.u 0 8 0 0 l.k 0 0 0 8 8 ( K.K.K.K.K.K.K./ $ $ & u ! W.W.W.",
"W.W.W.O q 0 & 8 a.J.] & 8 8 8 8 k.K.K.K.K.K.d.8 $ $ 8 x ; W.W.W.",
"W.W.W.W.y q & 8 9  .J.N. ./ 7 7 d.K.K.K.J...9 % * % v E W.W.W.W.",
"W.W.W.W.9.s 9 u 7 7 f X.B.J.K.K.J.V.y.] y * 7 7 t f ! r.W.W.W.W.",
"W.W.W.W.W.3 f f y t t t t t t t t t t t y t t y Q ! 0.W.W.W.W.W.",
"W.W.W.W.W.W.q.R Q g s s s s s s s s s s s d Q ~ ^ r.W.W.W.W.W.W.",
"W.W.W.W.W.W.W.W.> _ ~ W R R g : : g R W ~ ^ _ 5 W.W.W.W.W.W.W.W.",
"W.W.W.W.W.W.W.W.W.i.} { { _ _ _ _ _ { { 5 4 f.W.W.W.W.W.W.W.W.W.",
"W.W.W.W.W.W.W.W.W.W.W.W.i.0.4 < < 4 0.u.W.W.W.W.W.W.W.W.W.W.W.W.",
"W.W.W.W.W.W.W.W.W.W.W.W.W.W.W.W.W.W.W.W.W.W.W.W.W.W.W.W.W.W.W.W."
};
