/* XPM */
static char *a8162714cc6e40baf005ed22017eaf95[] = {
/* columns rows colors chars-per-pixel */
"16 16 128 2 ",
"   c #0F7CC9",
".  c #0F7DCA",
"X  c #0F7DCB",
"o  c #117DC9",
"O  c #137DC9",
"+  c #669BBC",
"@  c #669BBF",
"#  c #1781CD",
"$  c #1A84CF",
"%  c #0F80D0",
"&  c #1180D0",
"*  c #1183D4",
"=  c #1084D5",
"-  c #1284D5",
";  c #1687D6",
":  c #1387D8",
">  c #1088DB",
",  c #1288DB",
"<  c #1C90DF",
"1  c #2181C6",
"2  c #2981C1",
"3  c #2984C7",
"4  c #2083C9",
"5  c #2784C8",
"6  c #2786C8",
"7  c #2085CC",
"8  c #2286CD",
"9  c #2387CE",
"0  c #2B85C9",
"q  c #2989CC",
"w  c #3886C0",
"e  c #3688C2",
"r  c #3789C2",
"t  c #3889C2",
"y  c #3D89C1",
"u  c #3E8DC3",
"i  c #3E8CC7",
"p  c #358CCC",
"a  c #3C8FCA",
"s  c #278AD1",
"d  c #278DD6",
"f  c #2C90D6",
"g  c #2692DE",
"h  c #3298DE",
"j  c #118FE7",
"k  c #1D93E5",
"l  c #1392ED",
"z  c #1995EC",
"x  c #1696F0",
"c  c #2393E2",
"v  c #2F9CE8",
"b  c #309DE8",
"n  c #269EF0",
"m  c #36A5EF",
"M  c #3FA6EB",
"N  c #37A8F3",
"B  c #428FC4",
"V  c #4093CE",
"C  c #4993C8",
"Z  c #5394C4",
"A  c #5B97C2",
"S  c #5197CA",
"D  c #4998D4",
"F  c #4A9FDB",
"G  c #509AD0",
"H  c #619DC9",
"J  c #5EA2D3",
"K  c #5CA4D7",
"L  c #52A5DF",
"P  c #5CA5DA",
"I  c #7BA6C2",
"U  c #7CAACA",
"Y  c #63A5D4",
"T  c #67A7D5",
"R  c #60A6D8",
"E  c #60A7DA",
"W  c #67ABDC",
"Q  c #419EE0",
"!  c #46A3E3",
"~  c #4BA5E5",
"^  c #49A5E6",
"/  c #56B3ED",
"(  c #45ABF2",
")  c #46B3F7",
"_  c #48B4F7",
"`  c #53B3F0",
"'  c #56BBF6",
"]  c #57BEF9",
"[  c #59BDF9",
"{  c #63AFE4",
"}  c #66B1E6",
"|  c #67B5EC",
" . c #66B7EF",
".. c #7CB9E3",
"X. c #75BFEF",
"o. c #6BBFF3",
"O. c #7DC3F0",
"+. c #7EC4F1",
"@. c #76C6F8",
"#. c #83AED0",
"$. c #91B4D0",
"%. c #A0BED6",
"&. c #85B9E1",
"*. c #89BCE2",
"=. c #A6C0D1",
"-. c #A8C4D9",
";. c #82C0EB",
":. c #8DC4E9",
">. c #8FC9EF",
",. c #97C7E8",
"<. c #9BD2F4",
"1. c #9CD1F6",
"2. c #A9C7E0",
"3. c #A8CCE6",
"4. c #B3D5ED",
"5. c #B8D5EA",
"6. c #BCD5E8",
"7. c #A3D1F3",
"8. c #BDE2F8",
"9. c #C5DAE9",
"0. c #C3D9EC",
"q. c #C8DCEA",
"w. c #CCDEEB",
"e. c #CEDEEB",
"r. c #CFDFEB",
"t. c #C4E4F9",
"y. c #DAEFFB",
"u. c None",
/* pixels */
"u.u.u.u.u.u.u.u.u.u.u.u.u.u.u.u.",
"u.u.u.u.u.y.8.<.>.,.2.u.u.u.u.u.",
"u.u.u.u.t.@.[ ] ' ` ^ p u.u.u.u.",
"u.u.u.1.) ) o.O.O.X./ h 8 u.u.u.",
"u.u.7.n N 4.r.r.m M :.! d 2 u.u.",
"u.0.( x  .r.r.r.;.k < L 3.8 $.u.",
"u.&.z l  .r.r.r.r.{ : f P X Z u.",
"u.D j v b r.r.r.r.r.F % X o w u.",
"u.0 c 6.~ } r.r.r.r.q.s o   y u.",
"u.i > Q g > ..e.r.r.r.K X o H u.",
"u.#.: = ; = = *.r.r.r.K   8 %.u.",
"u.u.0 X E W $ # 6.r.9.q o C u.u.",
"u.u.u.5 4 V Y J T G 5 1 a u.u.u.",
"u.u.u.u.S u r r e t B A u.u.u.u.",
"u.u.u.u.u.-.U + + I =.u.u.u.u.u.",
"u.u.u.u.u.u.u.u.u.u.u.u.u.u.u.u."
};
